<?xml version="1.0" encoding="UTF-8"?>
<svg version="1.1" xmlns="http://www.w3.org/2000/svg" width="823" height="828">
<path d="M0 0 C271.59 0 543.18 0 823 0 C823 273.24 823 546.48 823 828 C551.41 828 279.82 828 0 828 C0 554.76 0 281.52 0 0 Z " fill="#201C1E" transform="translate(0,0)"/>
<path d="M0 0 C271.59 0 543.18 0 823 0 C823 1.98 823 3.96 823 6 C551.41 6 279.82 6 0 6 C0 4.02 0 2.04 0 0 Z " fill="#153256" transform="translate(0,822)"/>
<path d="M0 0 C271.59 0 543.18 0 823 0 C823 0.33 823 0.66 823 1 C818.67076238 1.82832916 814.58831141 2.12369547 810.18325424 2.12025452 C809.51917303 2.12110876 808.85509182 2.12196301 808.17088693 2.12284315 C805.947861 2.12448616 803.72491107 2.11898758 801.50189209 2.11352539 C799.89104376 2.11324533 798.2801953 2.11340845 796.66934705 2.11397648 C792.24418293 2.11427205 787.81904565 2.1083367 783.39388776 2.10140657 C778.62075276 2.09503375 773.84761675 2.09446351 769.07447815 2.0932312 C760.80286987 2.09034378 752.53127051 2.0839031 744.25966644 2.07516479 C732.2894136 2.06261239 720.31916405 2.05653431 708.34890571 2.05223143 C688.91375353 2.04516256 669.47860551 2.03435997 650.04345703 2.02050781 C648.88014277 2.01968 647.71682851 2.01885219 646.5182623 2.01799929 C637.08135717 2.01125597 627.64445218 2.00433214 618.20754719 1.99739647 C609.96437397 1.99134496 601.7212007 1.98536413 593.47802734 1.97949219 C591.737 1.97825 591.737 1.97825 589.96080038 1.97698271 C570.60345093 1.96329366 551.24610142 1.95353596 531.88874841 1.94658184 C519.95006832 1.94210198 508.01140064 1.93406461 496.07272634 1.92143703 C487.89033337 1.91300662 479.70794325 1.90811945 471.52554622 1.90601182 C466.80538748 1.90466778 462.08524477 1.90166563 457.36509132 1.89425278 C453.04097979 1.88748767 448.71689141 1.88537107 444.39277509 1.88688838 C442.83154732 1.88661772 441.2703187 1.88465559 439.70909569 1.8807956 C432.44817111 1.86368229 425.27453434 1.93081432 418.05369329 2.77563369 C415.26472575 3.08032882 412.51129331 3.10602722 409.70748901 3.08229065 C408.56303314 3.07525116 407.41857727 3.06821167 406.23944092 3.06095886 C404.40557831 3.04153984 404.40557831 3.04153984 402.53466797 3.02172852 C400.56063492 3.0073172 400.56063492 3.0073172 398.54672241 2.99261475 C395.69315967 2.97172898 392.83965319 2.94747058 389.9861412 2.92053413 C385.40812666 2.87735223 380.83007017 2.84192453 376.25198364 2.80735779 C368.93830493 2.7512371 361.62467909 2.69002258 354.31106007 2.62663645 C339.079833 2.4947277 323.8485248 2.3723564 308.6171875 2.25390625 C307.82884954 2.24776849 307.04051158 2.24163073 306.2282846 2.23530698 C254.74626387 1.83633491 203.27164902 2.01309817 151.79026294 2.38883978 C145.59688748 2.43363937 139.40348558 2.47326508 133.2100696 2.51199192 C127.12987521 2.55025306 121.04971286 2.59215535 114.96956259 2.63687855 C111.38475206 2.66318005 107.79994689 2.68804005 104.21510124 2.70907402 C100.2734824 2.73232712 96.33194262 2.76314793 92.39038086 2.79467773 C91.23182587 2.8004332 90.07327087 2.80618866 88.87960815 2.81211853 C83.47910733 2.86138563 78.32263497 3.08025425 73 4 C71.61876613 4.07951922 70.23508125 4.1303248 68.8515625 4.1328125 C67.80935547 4.13474609 67.80935547 4.13474609 66.74609375 4.13671875 C66.04613281 4.13285156 65.34617187 4.12898437 64.625 4.125 C63.54025391 4.13080078 63.54025391 4.13080078 62.43359375 4.13671875 C57.12676222 4.12676222 57.12676222 4.12676222 56 3 C54.2507128 2.90634994 52.49763746 2.88255562 50.74584961 2.88647461 C49.06421974 2.88658791 49.06421974 2.88658791 47.34861755 2.88670349 C46.1288472 2.89186478 44.90907684 2.89702606 43.65234375 2.90234375 C41.7899984 2.90446617 41.7899984 2.90446617 39.89002991 2.90663147 C36.58394509 2.91129409 33.27792854 2.92028503 29.97186279 2.93133545 C26.6003885 2.94155173 23.22890717 2.94612955 19.85742188 2.95117188 C13.23826225 2.96222605 6.61913507 2.97898264 0 3 C0 2.01 0 1.02 0 0 Z " fill="#112845" transform="translate(0,822)"/>
<path d="M0 0 C1.14937546 0.02009628 2.29875092 0.04019257 3.48295593 0.06089783 C5.35308098 0.10145042 5.35308098 0.10145042 7.26098633 0.14282227 C9.23263409 0.17892152 11.20428188 0.21501948 13.17593098 0.25104618 C15.94822582 0.30303752 18.72041388 0.35987492 21.49261475 0.41662598 C42.59803497 0.87400881 42.59803497 0.87400881 63.70629883 1.11938477 C64.79724854 1.12591064 65.88819824 1.13243652 67.01220703 1.13916016 C69.6631308 1.04742015 72.18050818 0.83053173 74.80786133 0.52392578 C82.07641876 -0.24164532 89.36799794 -0.12228571 96.66723633 -0.11108398 C98.22801224 -0.1117591 99.78878805 -0.11273086 101.3495636 -0.11398315 C104.60300712 -0.11544903 107.856423 -0.11334062 111.10986328 -0.10864258 C115.26558716 -0.10293164 119.42124664 -0.10623997 123.57696819 -0.11221504 C126.79326355 -0.11583855 130.00954378 -0.11467409 133.22583961 -0.11208725 C134.75794291 -0.11142367 136.29004762 -0.11222635 137.82214928 -0.1145668 C139.965454 -0.11712444 142.10865599 -0.11320985 144.25195312 -0.10766602 C145.46755417 -0.10687042 146.68315521 -0.10607483 147.93559265 -0.10525513 C151.48951458 0.02480243 154.89151753 0.49193817 158.40551758 1.02172852 C159.80931029 1.1007761 161.21556656 1.14939445 162.62158203 1.15112305 C163.74358757 1.15585129 163.74358757 1.15585129 164.88825989 1.16067505 C165.67383774 1.15865082 166.45941559 1.15662659 167.26879883 1.15454102 C168.10082321 1.15549774 168.9328476 1.15645447 169.79008484 1.15744019 C171.542349 1.15811743 173.29461573 1.15629509 175.046875 1.15209961 C177.69968439 1.14676538 180.35232291 1.15204963 183.00512695 1.15844727 C184.71801795 1.15778601 186.43090883 1.15650386 188.14379883 1.15454102 C188.92330399 1.15656525 189.70280914 1.15858948 190.50593567 1.16067505 C194.27173546 1.14500372 197.91553039 0.97769347 201.64997864 0.48667908 C208.3004761 -0.19114661 214.91544025 0.13472215 221.58149648 0.36824048 C242.90669756 1.08745267 264.23373078 1.13062978 285.56811523 1.13525391 C286.81259783 1.13563896 286.81259783 1.13563896 288.08222148 1.13603179 C298.70346539 1.13896378 309.32469712 1.13369711 319.94593743 1.12526533 C329.38021669 1.11798764 338.81449446 1.11660452 348.24877612 1.11547058 C365.06323285 1.11330022 381.87768462 1.10669582 398.69213867 1.09716797 C414.99291968 1.08794099 431.29369932 1.08088627 447.59448242 1.07666016 C448.60500052 1.07639743 449.61551862 1.07613471 450.65665849 1.07586402 C455.7278442 1.07455867 460.79902992 1.07329504 465.87021565 1.07205212 C507.71531973 1.06174251 549.56041837 1.04418031 591.40551758 1.02172852 C591.40551758 1.68172852 591.40551758 2.34172852 591.40551758 3.02172852 C319.81551758 3.02172852 48.22551758 3.02172852 -231.59448242 3.02172852 C-231.59448242 2.36172852 -231.59448242 1.70172852 -231.59448242 1.02172852 C-230.4479655 1.02265031 -229.30144857 1.0235721 -228.12018871 1.02452183 C-200.25451123 1.04669719 -172.38883488 1.06314277 -144.52315044 1.07354069 C-141.8432331 1.07456057 -139.16331577 1.07560189 -136.48339844 1.07666016 C-135.81727827 1.07692247 -135.15115811 1.07718478 -134.46485249 1.07745504 C-123.67101045 1.0818095 -112.87717372 1.08969583 -102.08333483 1.09888131 C-91.01258941 1.10822405 -79.94184616 1.11371057 -68.87109691 1.11581701 C-62.6508471 1.11712345 -56.43060934 1.12020516 -50.21036339 1.12745857 C-44.3606802 1.13422487 -38.51101409 1.13634422 -32.66132736 1.1348362 C-30.50982254 1.13511225 -28.35831717 1.13711376 -26.20681572 1.14093399 C-23.278252 1.14588072 -20.34975346 1.14472312 -17.42118835 1.14198303 C-16.13277394 1.14635229 -16.13277394 1.14635229 -14.81833094 1.15080982 C-9.6870129 1.13775784 -5.1153036 -0.10112236 0 0 Z " fill="#04111E" transform="translate(231.594482421875,816.978271484375)"/>
<path d="M0 0 C5.83494851 -0.04966889 11.66977222 -0.08584653 17.50488281 -0.10986328 C19.48732651 -0.11988215 21.46975559 -0.133501 23.45214844 -0.15087891 C26.31188584 -0.17530882 29.17142679 -0.1865245 32.03125 -0.1953125 C32.90865845 -0.20563507 33.78606689 -0.21595764 34.69006348 -0.22659302 C40.12602065 -0.22757029 44.825707 0.26345186 50 2 C60.4475068 17.6712602 54.01609797 54.72120478 53.73205566 72.93756104 C53.67222848 76.96573373 53.62442368 80.99401163 53.57690716 85.02234554 C53.53001717 88.94052862 53.4783215 92.85863578 53.42493629 96.77673531 C53.39976842 98.62928685 53.3754533 100.48185021 53.3520565 102.33442497 C53.12514688 119.64224841 53.12514688 119.64224841 52.21125793 127.87483215 C51.88256891 131.1813084 51.94296988 134.42799579 52 137.75 C52.21635951 150.46112093 52.21635951 150.46112093 49.453125 153.95703125 C45.86359803 155.48315179 42.53557143 155.06538831 38.75 154.6875 C38.00492188 154.62626953 37.25984375 154.56503906 36.4921875 154.50195312 C34.66017845 154.3492857 32.82985684 154.17660246 31 154 C31 153.67 31 153.34 31 153 C32.14339844 152.93941406 33.28679687 152.87882813 34.46484375 152.81640625 C35.95574305 152.73201572 37.44662775 152.64736698 38.9375 152.5625 C39.69224609 152.52318359 40.44699219 152.48386719 41.22460938 152.44335938 C44.91944187 152.55961976 44.91944187 152.55961976 48 151 C49.3382507 143.24859487 49.13649546 135.30756598 49.11352539 127.47216797 C49.11367142 126.15397568 49.11381744 124.83578339 49.1139679 123.47764587 C49.11425266 119.89362766 49.1084081 116.3096435 49.10139394 112.72563314 C49.0951067 108.96871206 49.09455238 105.21179004 49.09336853 101.4548645 C49.09027096 94.35428863 49.08207895 87.25372831 49.07201904 80.15315926 C49.06080881 72.06360338 49.05533512 63.97404673 49.05032361 55.88448501 C49.03989489 39.25631426 49.02232617 22.62815912 49 6 C45.58894596 5.41860743 42.26023937 4.87569672 38.80224609 4.71875 C38.03480072 4.68201172 37.26735535 4.64527344 36.47665405 4.60742188 C35.66709259 4.57197266 34.85753113 4.53652344 34.0234375 4.5 C32.28385402 4.41666963 30.5442707 4.33333621 28.8046875 4.25 C26.08142806 4.12393229 23.35810951 3.99922951 20.63476562 3.875 C17.99332304 3.75329206 15.35213947 3.62680638 12.7109375 3.5 C11.89732758 3.46455078 11.08371765 3.42910156 10.24545288 3.39257812 C6.70171379 3.22153114 3.41901383 2.94046826 0 2 C0 1.34 0 0.68 0 0 Z " fill="#232124" transform="translate(89,10)"/>
<path d="M0 0 C0.33 0 0.66 0 1 0 C1.63068403 5.04547224 -0.26057938 8.88670581 -3 13 C-4.89413459 14.87996401 -6.86148284 16.38423148 -9 18 C-9.33 18.66 -9.66 19.32 -10 20 C-11.33333333 20.33333333 -12.66666667 20.66666667 -14 21 C-14.33 21.66 -14.66 22.32 -15 23 C-16.485 23.495 -16.485 23.495 -18 24 C-18.391875 24.474375 -18.78375 24.94875 -19.1875 25.4375 C-22.06984967 27.9222842 -25.31012658 28.21363353 -29 29 C-29 29.66 -29 30.32 -29 31 C-33.80146251 33.22175643 -38.12768912 34.57594525 -43.375 35.5 C-47.49378196 36.25863057 -51.49905866 37.04300436 -55.4375 38.5 C-59.51785531 39.98376557 -63.67448674 40.74660572 -67.9375 41.5 C-78.15756943 42.65868442 -78.15756943 42.65868442 -87 47 C-96.7743922 48.57088446 -104.59729125 48.29781852 -114 45 C-114 44.67 -114 44.34 -114 44 C-104.58997722 43.6309795 -104.58997722 43.6309795 -100 46 C-99.67 45.34 -99.34 44.68 -99 44 C-97.02 44.33 -95.04 44.66 -93 45 C-92.67 44.01 -92.34 43.02 -92 42 C-90.865625 41.855625 -89.73125 41.71125 -88.5625 41.5625 C-85.19222799 41.38828522 -85.19222799 41.38828522 -84 40 C-82.51562191 39.77376479 -81.02222575 39.60587035 -79.52734375 39.46484375 C-78.62822266 39.37783203 -77.72910156 39.29082031 -76.80273438 39.20117188 C-75.38444336 39.0706543 -75.38444336 39.0706543 -73.9375 38.9375 C-72.98810547 38.84662109 -72.03871094 38.75574219 -71.06054688 38.66210938 C-68.70737865 38.43743502 -66.35389381 38.21691818 -64 38 C-63.67 37.01 -63.34 36.02 -63 35 C-59.54078034 34.21748352 -56.34962156 33.94814579 -52.8125 33.875 C-47.02143021 33.41576194 -43.8654343 31.1654311 -39.37109375 27.65625 C-35.99427553 25.29748406 -33.02830419 24.67138403 -29 24 C-29 23.34 -29 22.68 -29 22 C-28.195625 21.87625 -27.39125 21.7525 -26.5625 21.625 C-25.716875 21.41875 -24.87125 21.2125 -24 21 C-23.67 20.34 -23.34 19.68 -23 19 C-21.60784487 18.34131503 -20.18530746 17.74593916 -18.75 17.1875 C-14.60706096 15.40254534 -11.83640236 13.60996664 -9 10 C-8.27648573 8.01985568 -7.59734611 6.02178685 -7 4 C-6.34 3.67 -5.68 3.34 -5 3 C-5 3.66 -5 4.32 -5 5 C-4.01 5.495 -4.01 5.495 -3 6 C-2.5359375 5.071875 -2.5359375 5.071875 -2.0625 4.125 C-1.375 2.75 -0.6875 1.375 0 0 Z " fill="#432F31" transform="translate(485,558)"/>
<path d="M0 0 C0.33 0.99 0.66 1.98 1 3 C2.89179203 3.6814823 2.89179203 3.6814823 5 4 C5.99 4.33 6.98 4.66 8 5 C8 5.99 8 6.98 8 8 C10.475 8.495 10.475 8.495 13 9 C12.5248459 13.27638694 10.12116265 15.23351492 7 18 C5.35857037 19.0409066 3.69287785 20.04504326 2 21 C1.29875 21.556875 0.5975 22.11375 -0.125 22.6875 C-2 24 -2 24 -5 24 C-7.99697708 20.19614448 -8.36727883 16.70021444 -9 12 C-9.66 11.67 -10.32 11.34 -11 11 C-11 10.34 -11 9.68 -11 9 C-11.66 9 -12.32 9 -13 9 C-13.33 8.01 -13.66 7.02 -14 6 C-12.625 4.5 -12.625 4.5 -11 3 C-10.34 3 -9.68 3 -9 3 C-9.33 5.31 -9.66 7.62 -10 10 C-9.01 10 -8.02 10 -7 10 C-6.67 10.66 -6.34 11.32 -6 12 C-5.90203125 11.30132812 -5.8040625 10.60265625 -5.703125 9.8828125 C-5.55359375 8.97273438 -5.4040625 8.06265625 -5.25 7.125 C-5.11078125 6.22007812 -4.9715625 5.31515625 -4.828125 4.3828125 C-4 2 -4 2 -1.921875 0.6796875 C-0.97054688 0.34324219 -0.97054688 0.34324219 0 0 Z " fill="#574343" transform="translate(321,312)"/>
<path d="M0 0 C-2.58212652 1.72141768 -4.36383668 2.57158383 -7.25 3.5 C-8.43529297 3.88671875 -8.43529297 3.88671875 -9.64453125 4.28125 C-11.7321144 4.91825713 -13.82159685 5.46769732 -15.9375 6 C-19.2734029 6.73976842 -19.2734029 6.73976842 -21 10 C-26.2465301 13.9069905 -29.8789562 14.32179695 -36.34375 14.08203125 C-41.17876667 13.93271456 -44.89143906 14.26095937 -49 17 C-53.17300608 17.23183367 -56.94020228 16.98419339 -61 16 C-61 15.34 -61 14.68 -61 14 C-61.59167969 13.80664062 -62.18335938 13.61328125 -62.79296875 13.4140625 C-69.560477 11.18398637 -69.560477 11.18398637 -72.6875 9.875 C-75.42914712 8.83762001 -78.10344325 8.40417071 -81 8 C-81 7.34 -81 6.68 -81 6 C-82.32 5.67 -83.64 5.34 -85 5 C-85 4.67 -85 4.34 -85 4 C-82.69 4 -80.38 4 -78 4 C-78 4.66 -78 5.32 -78 6 C-76.906875 5.979375 -75.81375 5.95875 -74.6875 5.9375 C-71 6 -71 6 -68 7 C-68 7.66 -68 8.32 -68 9 C-66.3603125 9.2165625 -66.3603125 9.2165625 -64.6875 9.4375 C-61 10 -61 10 -58 11 C-49.74982977 11.55326585 -42.23319676 10.55914132 -34.46875 7.8203125 C-26.38539607 5.13438794 -17.92136745 3.50044886 -9.6171875 1.6484375 C-2.67927773 -0.07050731 -2.67927773 -0.07050731 0 0 Z " fill="#49393D" transform="translate(439,594)"/>
<path d="M0 0 C0.33 0 0.66 0 1 0 C3.5044197 22.46602203 3.12012076 44.84915953 2.79034424 67.41296387 C2.73645299 71.36960913 2.69771937 75.32634444 2.65903854 79.28316307 C2.61937083 83.16314932 2.57088077 87.04298864 2.51981354 90.92284012 C2.49668046 92.74281532 2.47589783 94.56282236 2.45778656 96.38285446 C2.3245203 109.02125969 1.44187092 121.44333241 0 134 C-0.33 134 -0.66 134 -1 134 C-1.02333679 116.82388103 -1.04098302 99.647767 -1.05181217 82.47163582 C-1.05697347 74.49687292 -1.06401301 66.52211986 -1.07543945 58.54736328 C-1.08539136 51.59841781 -1.09185464 44.64947947 -1.09408849 37.70052707 C-1.09539474 34.01944973 -1.09847515 30.33839276 -1.10573006 26.65732193 C-1.11375398 22.55295143 -1.11399081 18.4486166 -1.11352539 14.34423828 C-1.1189183 12.50357788 -1.1189183 12.50357788 -1.12442017 10.62573242 C-1.1230455 9.51231476 -1.12167084 8.39889709 -1.12025452 7.2517395 C-1.12117631 6.2801697 -1.1220981 5.30859989 -1.12304783 4.30758858 C-1 2 -1 2 0 0 Z " fill="#2F2D30" transform="translate(140,15)"/>
<path d="M0 0 C1.48831242 0.00667405 2.97660807 0.01863442 4.46484375 0.03515625 C5.22345703 0.03966797 5.98207031 0.04417969 6.76367188 0.04882812 C8.64326246 0.06064945 10.52281274 0.07858547 12.40234375 0.09765625 C12.07234375 1.08765625 11.74234375 2.07765625 11.40234375 3.09765625 C7.8611885 3.29578483 4.31941759 3.47925588 0.77734375 3.66015625 C-0.22167969 3.71623047 -1.22070312 3.77230469 -2.25 3.83007812 C-3.70986328 3.90258789 -3.70986328 3.90258789 -5.19921875 3.9765625 C-6.08947754 4.02369385 -6.97973633 4.0708252 -7.89697266 4.11938477 C-10.59765625 4.09765625 -10.59765625 4.09765625 -16.59765625 3.09765625 C-16.26765625 52.59765625 -15.93765625 102.09765625 -15.59765625 153.09765625 C-18.18940871 149.21002756 -18.05653665 145.80175715 -18.21655273 141.2746582 C-18.25422225 140.3533653 -18.29189177 139.43207239 -18.33070278 138.48286152 C-18.78081727 126.10117731 -18.72545825 113.71129169 -18.69905019 101.32338881 C-18.69268689 97.82011226 -18.69220281 94.3168343 -18.69102478 90.81355286 C-18.68794893 84.21624934 -18.6797875 77.61896291 -18.66967529 71.02166682 C-18.65839595 63.49532784 -18.65297429 55.96898793 -18.64797986 48.44264257 C-18.63760057 32.99430399 -18.62007582 17.54598235 -18.59765625 2.09765625 C-17.59863281 2.03707031 -16.59960938 1.97648438 -15.5703125 1.9140625 C-14.27996094 1.83027344 -12.98960938 1.74648437 -11.66015625 1.66015625 C-10.37238281 1.57894531 -9.08460937 1.49773438 -7.7578125 1.4140625 C-3.97141179 1.03495439 -3.95703994 0.10741151 0 0 Z " fill="#2B2A2C" transform="translate(28.59765625,5.90234375)"/>
<path d="M0 0 C2 3 2 3 1.7578125 5.15625 C1.44457031 6.31640625 1.44457031 6.31640625 1.125 7.5 C0.16511343 11.14513886 -0.01951191 14.1783319 0.0703125 17.9609375 C0.09738281 19.65089844 0.09738281 19.65089844 0.125 21.375 C0.14820313 22.49648438 0.17140625 23.61796875 0.1953125 24.7734375 C0.00042438 27.99298919 -0.65830213 30.09807015 -2 33 C-2.35858516 34.32676508 -2.7018576 35.65835921 -3 37 C-3.33 37 -3.66 37 -4 37 C-3.938125 38.794375 -3.938125 38.794375 -3.875 40.625 C-3.86825727 44.46161425 -4.69031999 47.37911999 -6 51 C-6.37531446 53.32694964 -6.71917202 55.65976685 -7 58 C-10.75 59.125 -10.75 59.125 -13 58 C-13.13504138 56.06440687 -13.23201129 54.126128 -13.3125 52.1875 C-13.37050781 51.10855469 -13.42851562 50.02960938 -13.48828125 48.91796875 C-13.32714844 47.95503906 -13.16601562 46.99210937 -13 46 C-10.52734375 44.359375 -10.52734375 44.359375 -8 43 C-7.22798135 41.1135929 -7.22798135 41.1135929 -7.25 39.0625 C-7.20617187 38.35738281 -7.16234375 37.65226562 -7.1171875 36.92578125 C-7.07851563 36.29027344 -7.03984375 35.65476562 -7 35 C-6.79375 34.2575 -6.5875 33.515 -6.375 32.75 C-5.90828253 30.57198513 -6.32585802 29.0973306 -7 27 C-6.34 27 -5.68 27 -5 27 C-5.01160156 26.24976563 -5.02320313 25.49953125 -5.03515625 24.7265625 C-5.16293156 10.233192 -5.16293156 10.233192 -4 5 C-3.34 4.67 -2.68 4.34 -2 4 C-0.86649466 1.98330173 -0.86649466 1.98330173 0 0 Z " fill="#593B36" transform="translate(349,308)"/>
<path d="M0 0 C2.96175123 0.61277612 4.38058783 1.25372522 7 3 C8.32 2.34 9.64 1.68 11 1 C10.566875 1.7734375 10.566875 1.7734375 10.125 2.5625 C8.84450737 5.14213157 8.84450737 5.14213157 8.0625 8.6875 C7.5365625 10.3271875 7.5365625 10.3271875 7 12 C4 13 4 13 0.5 13.4375 C-3.10172077 13.76762637 -3.10172077 13.76762637 -6 16 C-7.11375 15.67 -8.2275 15.34 -9.375 15 C-13.29975724 13.91730835 -14.51629046 14.0997948 -18 16 C-18 15.01 -18 14.02 -18 13 C-18.50015625 13.17402344 -19.0003125 13.34804688 -19.515625 13.52734375 C-22.96486922 14.18356789 -26.27822172 13.84798649 -29.75 13.5625 C-30.44738281 13.51029297 -31.14476562 13.45808594 -31.86328125 13.40429688 C-33.57596203 13.27525928 -35.28805066 13.13840386 -37 13 C-37 12.34 -37 11.68 -37 11 C-38.32 11 -39.64 11 -41 11 C-41.33 9.02 -41.66 7.04 -42 5 C-41.34 5 -40.68 5 -40 5 C-40 4.01 -40 3.02 -40 2 C-39.34 2.33 -38.68 2.66 -38 3 C-38 5.62113708 -38.31292445 7.50935112 -39 10 C-36.85423363 10.02685938 -34.70837355 10.04633088 -32.5625 10.0625 C-30.77005859 10.07990234 -30.77005859 10.07990234 -28.94140625 10.09765625 C-26.11126659 10.33901792 -26.11126659 10.33901792 -25 9 C-23.2534241 8.87398865 -21.5010766 8.82420506 -19.75 8.8125 C-18.79609375 8.79832031 -17.8421875 8.78414063 -16.859375 8.76953125 C-13.87300541 9.0102359 -11.70629259 9.750562 -9 11 C-9 10.34 -9 9.68 -9 9 C-5.37 8.67 -1.74 8.34 2 8 C2.33 6.35 2.66 4.7 3 3 C2.01 2.67 1.02 2.34 0 2 C0 1.34 0 0.68 0 0 Z " fill="#715A56" transform="translate(378,453)"/>
<path d="M0 0 C2.97 0.495 2.97 0.495 6 1 C4.68 1.33 3.36 1.66 2 2 C2.14139481 4.25028329 2.28828003 6.50022206 2.4375 8.75 C2.55931641 10.62945312 2.55931641 10.62945312 2.68359375 12.546875 C2.92653015 15.19818086 3.33888876 17.44999951 4 20 C3.5625 22.25 3.5625 22.25 3 24 C5.49552484 23.21869929 5.49552484 23.21869929 8 22 C8.33 21.01 8.66 20.02 9 19 C9.66 19 10.32 19 11 19 C11 21.97 11 24.94 11 28 C14.72614153 26.88145414 14.72614153 26.88145414 17 24 C17.33 25.32 17.66 26.64 18 28 C16.71064081 29.14842923 15.41843421 30.29366227 14.125 31.4375 C13.40570313 32.07558594 12.68640625 32.71367188 11.9453125 33.37109375 C9.1801322 35.68651581 7.53672949 36.1549933 4 36.1875 C3.29875 36.20167969 2.5975 36.21585938 1.875 36.23046875 C0 36 0 36 -2 34 C-2.33333333 28.66666667 -2.33333333 28.66666667 -1 26 C-0.84621148 24.04225931 -0.75028537 22.07982648 -0.68359375 20.1171875 C-0.62075195 18.36728516 -0.62075195 18.36728516 -0.55664062 16.58203125 C-0.51732422 15.35871094 -0.47800781 14.13539062 -0.4375 12.875 C-0.39431641 11.64394531 -0.35113281 10.41289063 -0.30664062 9.14453125 C-0.20031296 6.09647147 -0.09828219 3.0483281 0 0 Z " fill="#6E6D6F" transform="translate(48,48)"/>
<path d="M0 0 C0.33 0.66 0.66 1.32 1 2 C1.99 1.34 2.98 0.68 4 0 C5 1 5 1 5.09765625 3.72265625 C5.08605469 4.82480469 5.07445312 5.92695313 5.0625 7.0625 C5.05347656 8.16722656 5.04445313 9.27195312 5.03515625 10.41015625 C5.02355469 11.26480469 5.01195312 12.11945313 5 13 C8.63 13 12.26 13 16 13 C16.33 12.01 16.66 11.02 17 10 C17.98422146 7.99218823 18.98234073 5.99107248 20 4 C23.3125 4.0625 23.3125 4.0625 27 5 C29.0625 8.25 29.0625 8.25 30 12 C29.1875 14.9375 29.1875 14.9375 28 17 C27.34 17 26.68 17 26 17 C26.33 14.03 26.66 11.06 27 8 C26.01 8 25.02 8 24 8 C23.7525 8.721875 23.505 9.44375 23.25 10.1875 C21.80226634 13.44490074 20.63695221 15.57122823 18 18 C13.74377581 18.8426464 10.65997855 18.4399857 7 16 C7 15.34 7 14.68 7 14 C5.68 14 4.36 14 3 14 C2.67 13.34 2.34 12.68 2 12 C1.01 12.495 1.01 12.495 0 13 C0 12.01 0 11.02 0 10 C-0.66 10 -1.32 10 -2 10 C-2 7.36 -2 4.72 -2 2 C-4.45224694 2.10613836 -4.45224694 2.10613836 -7 3 C-8.37466625 5.47636012 -8.37466625 5.47636012 -9 8 C-9.66 8 -10.32 8 -11 8 C-11 6.02 -11 4.04 -11 2 C-7.17679443 0.57741188 -4.08718695 -0.24042276 0 0 Z " fill="#624849" transform="translate(408,310)"/>
<path d="M0 0 C63.36 0 126.72 0 192 0 C192 0.33 192 0.66 192 1 C191.42923453 1.00423194 190.85846907 1.00846388 190.27040768 1.01282406 C176.36480171 1.11625239 162.45924566 1.22496791 148.55372524 1.33933926 C141.82904688 1.39455267 135.10436321 1.44801469 128.37963867 1.49731445 C121.88922974 1.54507403 115.39887249 1.59742093 108.90852547 1.65294075 C106.433048 1.67331181 103.95755639 1.69203342 101.48205376 1.70907402 C98.01329314 1.73323437 94.54462928 1.76327289 91.07592773 1.79467773 C90.05381195 1.8004332 89.03169617 1.80618866 87.97860718 1.81211853 C82.87920611 1.86455203 78.02905623 2.15519976 73 3 C71.61876613 3.07951922 70.23508125 3.1303248 68.8515625 3.1328125 C67.80935547 3.13474609 67.80935547 3.13474609 66.74609375 3.13671875 C66.04613281 3.13285156 65.34617187 3.12898437 64.625 3.125 C63.54025391 3.13080078 63.54025391 3.13080078 62.43359375 3.13671875 C57.12676222 3.12676222 57.12676222 3.12676222 56 2 C54.2507128 1.90634994 52.49763746 1.88255562 50.74584961 1.88647461 C49.06421974 1.88658791 49.06421974 1.88658791 47.34861755 1.88670349 C46.1288472 1.89186478 44.90907684 1.89702606 43.65234375 1.90234375 C41.7899984 1.90446617 41.7899984 1.90446617 39.89002991 1.90663147 C36.58394509 1.91129409 33.27792854 1.92028503 29.97186279 1.93133545 C26.6003885 1.94155173 23.22890717 1.94612955 19.85742188 1.95117188 C13.23826225 1.96222605 6.61913507 1.97898264 0 2 C0 1.34 0 0.68 0 0 Z " fill="#122B49" transform="translate(0,823)"/>
<path d="M0 0 C0.33 0 0.66 0 1 0 C1.80774197 12.28905769 2.13787573 24.50665202 2.09765625 36.8203125 C2.09578409 38.54336505 2.09436398 40.26641815 2.09336853 41.98947144 C2.08960604 46.45759633 2.07983181 50.92568712 2.06866455 55.39379883 C2.05831316 59.97997578 2.05384194 64.56615841 2.04882812 69.15234375 C2.03820184 78.10157723 2.02120393 87.05078575 2 96 C0.02 96.99 0.02 96.99 -2 98 C-2.09997053 91.41305318 -2.03675874 84.89995203 -1.49609375 78.33203125 C-0.88578899 69.55802196 -0.92114302 60.81881905 -0.98168945 52.02749634 C-1.09621068 34.65596264 -0.88684412 17.35242611 0 0 Z " fill="#372727" transform="translate(486,454)"/>
<path d="M0 0 C0.66 0.33 1.32 0.66 2 1 C2 1.66 2 2.32 2 3 C-1 5 -1 5 -4.3125 5.9375 C-7.98402602 6.85281564 -7.98402602 6.85281564 -11 8.625 C-14.54039294 10.2476801 -17.15153206 10 -21 10 C-21.69609375 10.73283203 -21.69609375 10.73283203 -22.40625 11.48046875 C-24.56793628 13.54148827 -25.8707518 13.37124459 -28.8125 13.3125 C-32.86381441 13.18238479 -36.29218528 12.76121199 -40 11 C-40.66 10.01 -41.32 9.02 -42 8 C-43.32 8 -44.64 8 -46 8 C-46 7.01 -46 6.02 -46 5 C-44.35 5 -42.7 5 -41 5 C-40.67 5.66 -40.34 6.32 -40 7 C-38.700625 6.855625 -37.40125 6.71125 -36.0625 6.5625 C-35.33160156 6.48128906 -34.60070312 6.40007812 -33.84765625 6.31640625 C-31.98859771 6.18113386 -31.98859771 6.18113386 -31 5 C-29.47150646 4.89106296 -27.93849049 4.84419075 -26.40625 4.82421875 C-25.4575 4.80037109 -24.50875 4.77652344 -23.53125 4.75195312 C-21.54187092 4.70965318 -19.55222978 4.6780475 -17.5625 4.65820312 C-11.53911588 4.48414028 -7.10335429 3.59453837 -1.75976562 0.75317383 C-1.17904297 0.50462646 -0.59832031 0.2560791 0 0 Z " fill="#735C56" transform="translate(429,275)"/>
<path d="M0 0 C5.74276527 3.17684887 5.74276527 3.17684887 6.9375 7 C6.99212909 9.62219611 6.85159614 11.53983337 6 14 C6.66 14.33 7.32 14.66 8 15 C4.88089144 16.79275866 2.32317572 17.34290718 -1.25 17.625 C-2.14203125 17.69976562 -3.0340625 17.77453125 -3.953125 17.8515625 C-4.62859375 17.90054687 -5.3040625 17.94953125 -6 18 C-8.42130331 14.36804504 -8.21022785 12.61650652 -8.125 8.3125 C-8.09792969 6.54326172 -8.09792969 6.54326172 -8.0703125 4.73828125 C-8.04710937 3.83464844 -8.02390625 2.93101562 -8 2 C-5.36 2 -2.72 2 0 2 C0 1.34 0 0.68 0 0 Z " fill="#50312C" transform="translate(368,382)"/>
<path d="M0 0 C0.33 0 0.66 0 1 0 C1.21089072 6.47903162 0.89408245 11.76066956 -1 18 C-2.06171973 26.01170287 -2.27418246 34.11933549 -2.5625 42.1875 C-2.60568359 43.33025391 -2.64886719 44.47300781 -2.69335938 45.65039062 C-2.79816296 48.43350811 -2.90033299 51.21669465 -3 54 C-3.66 54 -4.32 54 -5 54 C-5.02578125 54.71285156 -5.0515625 55.42570312 -5.078125 56.16015625 C-5.45766258 62.56916582 -6.34901282 66.7001799 -10 72 C-12 69 -12 69 -11.8125 66.5 C-11 64 -11 64 -9.4921875 62.74609375 C-7.2682715 60.14376272 -7.47938577 57.94842691 -7.3125 54.5625 C-7.27906494 53.92304443 -7.24562988 53.28358887 -7.21118164 52.62475586 C-6.80707988 43.75865828 -6.91893409 34.87221398 -7 26 C-6.34 25.67 -5.68 25.34 -5 25 C-4.5316735 22.41394668 -4.5316735 22.41394668 -4.375 19.4375 C-4.30023438 18.42558594 -4.22546875 17.41367187 -4.1484375 16.37109375 C-4.09945313 15.58863281 -4.05046875 14.80617188 -4 14 C-3.34 14 -2.68 14 -2 14 C-1.93941406 13.32453125 -1.87882812 12.6490625 -1.81640625 11.953125 C-1.73261719 11.06109375 -1.64882813 10.1690625 -1.5625 9.25 C-1.48128906 8.36828125 -1.40007812 7.4865625 -1.31640625 6.578125 C-1.03761535 4.30649548 -0.61209423 2.20148177 0 0 Z " fill="#2E1F20" transform="translate(492,306)"/>
<path d="M0 0 C0.99 0.33 1.98 0.66 3 1 C2.23605541 8.38479767 2.23605541 8.38479767 0.98828125 11.63671875 C-0.34380881 16.17003709 -0.33744903 20.48677208 -0.4375 25.1875 C-0.65763482 31.89931899 -1.17178685 37.77813182 -3.3125 44.1796875 C-4.42524176 48.74445767 -4.46255202 53.39131793 -4.53320312 58.07714844 C-4.66214568 62.55478268 -5.33010204 65.37859585 -8 69 C-9 67 -9 67 -9 64 C-9.02320313 62.98808594 -9.04640625 61.97617187 -9.0703125 60.93359375 C-9.08835937 59.77988281 -9.10640625 58.62617188 -9.125 57.4375 C-9.14820313 56.28121094 -9.17140625 55.12492187 -9.1953125 53.93359375 C-9 51 -9 51 -7 49 C-6.60940679 46.04551009 -6.60940679 46.04551009 -6.5 42.6875 C-6.21838868 36.51317189 -6.21838868 36.51317189 -4.97265625 33.5859375 C-3.63902239 30.04029245 -3.82478714 26.6638556 -3.9375 22.9375 C-4.13776529 14.80079563 -4.13776529 14.80079563 -3 11 C-2.78807905 9.41974995 -2.60076629 7.83601539 -2.4375 6.25 C-2.35371094 5.45078125 -2.26992188 4.6515625 -2.18359375 3.828125 C-2.12300781 3.22484375 -2.06242187 2.6215625 -2 2 C-1.34 2 -0.68 2 0 2 C0 1.34 0 0.68 0 0 Z " fill="#382728" transform="translate(483,377)"/>
<path d="M0 0 C0 0.33 0 0.66 0 1 C-1.216875 1.226875 -2.43375 1.45375 -3.6875 1.6875 C-7.80650833 2.58914119 -11.58456178 3.94026609 -15.5 5.5 C-19.95477885 7.27155159 -24.18737503 8.63308844 -28.88671875 9.53515625 C-31.19250514 10.04234401 -33.33912761 10.77087337 -35.5625 11.5625 C-39.71920126 12.98888969 -43.6205015 13.7209972 -48 14 C-48.70898438 14.05285156 -49.41796875 14.10570312 -50.1484375 14.16015625 C-56.19531792 14.40415318 -61.32071587 12.99189923 -67 11 C-67 10.67 -67 10.34 -67 10 C-57.58997722 9.6309795 -57.58997722 9.6309795 -53 12 C-52.67 11.34 -52.34 10.68 -52 10 C-49.03 10.495 -49.03 10.495 -46 11 C-45.67 10.01 -45.34 9.02 -45 8 C-43.865625 7.855625 -42.73125 7.71125 -41.5625 7.5625 C-38.19222799 7.38828522 -38.19222799 7.38828522 -37 6 C-35.51562191 5.77376479 -34.02222575 5.60587035 -32.52734375 5.46484375 C-31.62822266 5.37783203 -30.72910156 5.29082031 -29.80273438 5.20117188 C-28.85720703 5.11416016 -27.91167969 5.02714844 -26.9375 4.9375 C-25.98810547 4.84662109 -25.03871094 4.75574219 -24.06054688 4.66210938 C-21.70737865 4.43743502 -19.35389381 4.21691818 -17 4 C-16.67 3.01 -16.34 2.02 -16 1 C-4.18432203 -1.50635593 -4.18432203 -1.50635593 0 0 Z " fill="#5C4B4E" transform="translate(438,592)"/>
<path d="M0 0 C-2.58212652 1.72141768 -4.36383668 2.57158383 -7.25 3.5 C-8.04019531 3.7578125 -8.83039063 4.015625 -9.64453125 4.28125 C-11.7321144 4.91825713 -13.82159685 5.46769732 -15.9375 6 C-19.2734029 6.73976842 -19.2734029 6.73976842 -21 10 C-26.2465301 13.9069905 -29.8789562 14.32179695 -36.34375 14.08203125 C-41.17876667 13.93271456 -44.89143906 14.26095937 -49 17 C-53.17300608 17.23183367 -56.94020228 16.98419339 -61 16 C-61 15.34 -61 14.68 -61 14 C-60.175 13.96261719 -59.35 13.92523437 -58.5 13.88671875 C-46.09726855 13.18075971 -32.04579805 12.18664879 -21 6 C-20.67 5.34 -20.34 4.68 -20 4 C-17.87606196 3.39605027 -15.72384773 2.88965489 -13.5625 2.4375 C-1.82971498 -0.04815039 -1.82971498 -0.04815039 0 0 Z " fill="#342628" transform="translate(439,594)"/>
<path d="M0 0 C2.64 0 5.28 0 8 0 C8.66 0.99 9.32 1.98 10 3 C12.87759068 3.80336113 12.87759068 3.80336113 16.125 4.1875 C17.76855469 4.42533203 17.76855469 4.42533203 19.4453125 4.66796875 C20.28835937 4.77753906 21.13140625 4.88710938 22 5 C22.33 5.99 22.66 6.98 23 8 C18.21521178 8.09764874 13.72314313 7.77112541 9 7 C8.67 5.68 8.34 4.36 8 3 C5.03 2.505 5.03 2.505 2 2 C2.01047363 2.74572266 2.02094727 3.49144531 2.03173828 4.25976562 C2.07358445 7.67314213 2.09941676 11.08646442 2.125 14.5 C2.14175781 15.67304687 2.15851562 16.84609375 2.17578125 18.0546875 C2.21148985 24.41081848 1.90984993 29.92457188 0 36 C-0.33 36 -0.66 36 -1 36 C-0.67 24.12 -0.34 12.24 0 0 Z " fill="#3B3A3D" transform="translate(46,46)"/>
<path d="M0 0 C1.08949453 3.26848358 1.23747441 3.90631397 0 7 C-1.53688247 9.19477601 -3.1594116 11.0247344 -5 13 C-5.66 13 -6.32 13 -7 13 C-7 13.66 -7 14.32 -7 15 C-12.75 18 -12.75 18 -15 18 C-15 18.66 -15 19.32 -15 20 C-18.6044943 22.58422776 -22.18982492 23.77176585 -26.4375 24.9375 C-31.32817591 26.37365086 -35.02984811 27.82387849 -39 31 C-39.66 30.67 -40.32 30.34 -41 30 C-35.14038608 25.50923032 -30.34356798 22.223928 -23 21 C-23 20.34 -23 19.68 -23 19 C-22.195625 18.87625 -21.39125 18.7525 -20.5625 18.625 C-19.716875 18.41875 -18.87125 18.2125 -18 18 C-17.67 17.34 -17.34 16.68 -17 16 C-15.60784487 15.34131503 -14.18530746 14.74593916 -12.75 14.1875 C-8.60706096 12.40254534 -5.83640236 10.60996664 -3 7 C-1.73215876 3.86649283 -1.73215876 3.86649283 -1 1 C-0.67 0.67 -0.34 0.34 0 0 Z " fill="#644C4C" transform="translate(479,561)"/>
<path d="M0 0 C3.3125 0.0625 3.3125 0.0625 7 1 C9.0625 4.25 9.0625 4.25 10 8 C9.1875 10.9375 9.1875 10.9375 8 13 C7.34 13 6.68 13 6 13 C6.33 10.03 6.66 7.06 7 4 C6.01 4 5.02 4 4 4 C3.7525 4.721875 3.505 5.44375 3.25 6.1875 C1.80226634 9.44490074 0.63695221 11.57122823 -2 14 C-4.80044393 14.42918681 -7.14296518 14.23808624 -10 14 C-10.33 13.34 -10.66 12.68 -11 12 C-8.69 12 -6.38 12 -4 12 C-4 10.02 -4 8.04 -4 6 C-3.34 5.67 -2.68 5.34 -2 5 C-1.27840576 3.35636866 -0.60648579 1.68949614 0 0 Z " fill="#675052" transform="translate(428,314)"/>
<path d="M0 0 C3.31681358 0.2456899 6.07265179 0.47836663 9 2.125 C10.6448094 5.20901762 9.77769676 7.70974448 9 11 C8.34 11.66 7.68 12.32 7 13 C6.01 13 5.02 13 4 13 C3.67 12.34 3.34 11.68 3 11 C2.01 10.67 1.02 10.34 0 10 C-0.19412181 8.52168779 -0.38012131 7.04230684 -0.5625 5.5625 C-0.66691406 4.73878906 -0.77132813 3.91507812 -0.87890625 3.06640625 C-0.91886719 2.38449219 -0.95882813 1.70257813 -1 1 C-0.67 0.67 -0.34 0.34 0 0 Z " fill="#6A5858" transform="translate(317,315)"/>
<path d="M0 0 C0.66 0 1.32 0 2 0 C1.566875 0.7734375 1.566875 0.7734375 1.125 1.5625 C-0.15549263 4.14213157 -0.15549263 4.14213157 -0.9375 7.6875 C-1.4634375 9.3271875 -1.4634375 9.3271875 -2 11 C-5 12 -5 12 -8.5 12.4375 C-12.10172077 12.76762637 -12.10172077 12.76762637 -15 15 C-16.11375 14.67 -17.2275 14.34 -18.375 14 C-22.29975724 12.91730835 -23.51629046 13.0997948 -27 15 C-27 13.68 -27 12.36 -27 11 C-26.39937744 10.94465088 -25.79875488 10.88930176 -25.17993164 10.83227539 C-22.47366869 10.58029218 -19.76810116 10.3214883 -17.0625 10.0625 C-16.11697266 9.97548828 -15.17144531 9.88847656 -14.19726562 9.79882812 C-13.29814453 9.71181641 -12.39902344 9.62480469 -11.47265625 9.53515625 C-10.64000244 9.456604 -9.80734863 9.37805176 -8.94946289 9.29711914 C-6.999388 9.19688602 -6.999388 9.19688602 -6 8 C-5.63239269 5.67182036 -5.29758419 3.3381615 -5 1 C-3.68 1 -2.36 1 -1 1 C-0.67 0.67 -0.34 0.34 0 0 Z " fill="#6A4E4B" transform="translate(387,454)"/>
<path d="M0 0 C0.96958001 2.90874004 1.12880274 4.78989791 1.1328125 7.81640625 C1.13474609 9.20956055 1.13474609 9.20956055 1.13671875 10.63085938 C1.13285156 11.59830078 1.12898438 12.56574219 1.125 13.5625 C1.12886719 14.53380859 1.13273437 15.50511719 1.13671875 16.50585938 C1.13542969 17.43333984 1.13414062 18.36082031 1.1328125 19.31640625 C1.13168457 20.16662354 1.13055664 21.01684082 1.12939453 21.89282227 C1 24 1 24 0 26 C-0.13002769 28.22780778 -0.2295542 30.45744289 -0.3125 32.6875 C-0.67925449 38.63503526 -1.477723 42.22788278 -5 47 C-7 44 -7 44 -6.8125 41.5 C-6 39 -6 39 -4.4921875 37.74609375 C-2.2682715 35.14376272 -2.47938577 32.94842691 -2.3125 29.5625 C-2.27906494 28.92304443 -2.24562988 28.28358887 -2.21118164 27.62475586 C-1.80707988 18.75865828 -1.91893409 9.87221398 -2 1 C-1.34 0.67 -0.68 0.34 0 0 Z " fill="#3A292A" transform="translate(487,331)"/>
<path d="M0 0 C-0.66 0 -1.32 0 -2 0 C-2 1.32 -2 2.64 -2 4 C-6.80146251 6.22175643 -11.12768912 7.57594525 -16.375 8.5 C-21.49672794 9.43317744 -26.32877409 10.59974342 -31.16796875 12.546875 C-33.41480247 13.10259507 -34.82645035 12.71327128 -37 12 C-26.52432432 8.03310811 -26.52432432 8.03310811 -21.6875 7 C-17.73282117 5.92754472 -15.35385781 4.30577725 -12 2 C-4.64839094 -1.51847437 -4.64839094 -1.51847437 0 0 Z " fill="#4A3839" transform="translate(458,585)"/>
<path d="M0 0 C1.65 0.66 3.3 1.32 5 2 C4.67 2.99 4.34 3.98 4 5 C-3.692641 5.84800767 -11.26291674 6.12152487 -19 6 C-19.33 5.34 -19.66 4.68 -20 4 C-19.34 4 -18.68 4 -18 4 C-18 3.01 -18 2.02 -18 1 C-16.78441406 1.01160156 -15.56882812 1.02320313 -14.31640625 1.03515625 C-12.73177236 1.04453278 -11.14713682 1.05363313 -9.5625 1.0625 C-8.76005859 1.07087891 -7.95761719 1.07925781 -7.13085938 1.08789062 C-5.08704779 1.0965143 -3.04316098 1.0522815 -1 1 C-0.67 0.67 -0.34 0.34 0 0 Z " fill="#735E59" transform="translate(370,452)"/>
<path d="M0 0 C5.83494851 -0.04966889 11.66977222 -0.08584653 17.50488281 -0.10986328 C19.48732651 -0.11988215 21.46975559 -0.133501 23.45214844 -0.15087891 C26.31188584 -0.17530882 29.17142679 -0.1865245 32.03125 -0.1953125 C32.90865845 -0.20563507 33.78606689 -0.21595764 34.69006348 -0.22659302 C40.13340372 -0.22757161 44.77099001 0.47046165 50 2 C50 2.66 50 3.32 50 4 C48.57965454 3.76228882 48.57965454 3.76228882 47.13061523 3.51977539 C42.39953411 2.84695564 37.68224593 2.77177341 32.91015625 2.68359375 C31.96563095 2.66281265 31.02110565 2.64203156 30.04795837 2.62062073 C27.05287427 2.55562646 24.05770807 2.496475 21.0625 2.4375 C19.02277822 2.39426703 16.98306452 2.35065127 14.94335938 2.30664062 C9.96232212 2.19999695 4.9812029 2.0985906 0 2 C0 1.34 0 0.68 0 0 Z " fill="#2D2B2E" transform="translate(89,10)"/>
<path d="M0 0 C2 3 2 3 1.7578125 5.15625 C1.44457031 6.31640625 1.44457031 6.31640625 1.125 7.5 C0.15947869 11.16653664 -0.02853967 14.18926208 0.10546875 17.99609375 C0.14607422 19.69958984 0.14607422 19.69958984 0.1875 21.4375 C0.22230469 22.57058594 0.25710938 23.70367187 0.29296875 24.87109375 C-0.02427759 28.25928471 -0.70987222 29.55359053 -3 32 C-3.40391429 9.08908385 -3.40391429 9.08908385 -1 1 C-0.67 0.67 -0.34 0.34 0 0 Z " fill="#613F3C" transform="translate(349,308)"/>
<path d="M0 0 C-1.11050926 3.22047686 -1.92400329 3.95883511 -5 5.625 C-5.99 6.07875 -6.98 6.5325 -8 7 C-8.66 7.66 -9.32 8.32 -10 9 C-18.20588235 9.52941176 -18.20588235 9.52941176 -22 7 C-21.67 6.01 -21.34 5.02 -21 4 C-20.67 4.33 -20.34 4.66 -20 5 C-15.05792455 5.51124918 -12.29214827 5.59625382 -8.3125 2.5 C-7.46945313 1.81357422 -7.46945313 1.81357422 -6.609375 1.11328125 C-4.38291449 -0.4268674 -2.62777395 -0.39814757 0 0 Z " fill="#313133" transform="translate(68,78)"/>
<path d="M0 0 C2.42869909 3.64304864 2.25675675 6.30722339 2.1953125 10.51171875 C2.1924826 11.23994339 2.18965271 11.96816803 2.18673706 12.71846008 C2.17555257 15.04164137 2.15045166 17.36443547 2.125 19.6875 C2.11496794 21.2636663 2.10584248 22.83983865 2.09765625 24.41601562 C2.07561896 28.27749267 2.04110141 32.13868071 2 36 C-3.73483505 27.39774743 -1.86359885 9.93919388 0 0 Z " fill="#4A3937" transform="translate(294,452)"/>
<path d="M0 0 C1.6415049 3.2830098 0.51888624 6.42545033 0 10 C-0.66 10 -1.32 10 -2 10 C-2 10.66 -2 11.32 -2 12 C-3.98 12 -5.96 12 -8 12 C-8.21863671 8.79332827 -8.33122923 6.62759222 -6.8125 3.75 C-4.69578043 1.70627076 -2.77991186 0.90159304 0 0 Z " fill="#8B8B8D" transform="translate(56,70)"/>
<path d="M0 0 C2.31 0 4.62 0 7 0 C7 0.66 7 1.32 7 2 C8.093125 1.979375 9.18625 1.95875 10.3125 1.9375 C14 2 14 2 17 3 C17 3.66 17 4.32 17 5 C19.97 5.495 19.97 5.495 23 6 C23 6.66 23 7.32 23 8 C23.66 8.33 24.32 8.66 25 9 C23.54077307 8.88590407 22.08259402 8.75834456 20.625 8.625 C19.81289063 8.55539062 19.00078125 8.48578125 18.1640625 8.4140625 C16 8 16 8 14 6 C11.57284794 5.32059533 11.57284794 5.32059533 8.875 4.875 C7.50988281 4.62363281 7.50988281 4.62363281 6.1171875 4.3671875 C5.41851562 4.24601563 4.71984375 4.12484375 4 4 C4 3.34 4 2.68 4 2 C2.68 1.67 1.36 1.34 0 1 C0 0.67 0 0.34 0 0 Z " fill="#403235" transform="translate(354,598)"/>
<path d="M0 0 C0.33 0.66 0.66 1.32 1 2 C1.81984375 1.91621094 2.6396875 1.83242188 3.484375 1.74609375 C5.10085938 1.59333984 5.10085938 1.59333984 6.75 1.4375 C8.35101563 1.28087891 8.35101563 1.28087891 9.984375 1.12109375 C12.65659792 1.01378946 14.52400736 1.03390007 17 2 C17.33 2.66 17.66 3.32 18 4 C20.32156597 4.40729228 22.6568787 4.74438677 25 5 C25 5.66 25 6.32 25 7 C21.06337024 7.30281767 18.1491682 6.7959044 14.5 5.4375 C10.57131032 4.01788944 8.11633574 4.04271262 4 5 C1.6875 4.75 1.6875 4.75 0 4 C-0.33 3.01 -0.66 2.02 -1 1 C-0.67 0.67 -0.34 0.34 0 0 Z " fill="#403133" transform="translate(295,297)"/>
<path d="M0 0 C0.66 0 1.32 0 2 0 C3.85966547 5.5789964 4.01385245 11.84556355 1.5 17.1875 C0.7575 18.0846875 0.7575 18.0846875 0 19 C-2 17 -2 17 -2.01171875 14.43359375 C-1.90472656 13.44488281 -1.79773438 12.45617187 -1.6875 11.4375 C-1.58824219 10.44621094 -1.48898437 9.45492188 -1.38671875 8.43359375 C-1 6 -1 6 0 5 C0.04063832 3.33382885 0.042721 1.66611905 0 0 Z " fill="#2D2C31" transform="translate(542,370)"/>
<path d="M0 0 C0.79921875 0.00902344 1.5984375 0.01804687 2.421875 0.02734375 C3.02515625 0.03894531 3.6284375 0.05054688 4.25 0.0625 C4.25 1.0525 4.25 2.0425 4.25 3.0625 C2.26432292 2.96484375 0.27864583 2.8671875 -1.70703125 2.76953125 C-3.85475938 2.86330483 -3.85475938 2.86330483 -5.1875 4.5625 C-6.75 6.0625 -6.75 6.0625 -9.23046875 6.35546875 C-10.57044922 6.30326172 -10.57044922 6.30326172 -11.9375 6.25 C-13.28908203 6.20939453 -13.28908203 6.20939453 -14.66796875 6.16796875 C-15.35503906 6.13316406 -16.04210937 6.09835937 -16.75 6.0625 C-16.42 5.4025 -16.09 4.7425 -15.75 4.0625 C-13.42843403 3.65520772 -11.0931213 3.31811323 -8.75 3.0625 C-8.75 2.4025 -8.75 1.7425 -8.75 1.0625 C-5.75519083 0.1901588 -3.11424089 -0.04579766 0 0 Z " fill="#4E3A36" transform="translate(411.75,281.9375)"/>
<path d="M0 0 C0.66 0.33 1.32 0.66 2 1 C2 4.96 2 8.92 2 13 C5.63 13 9.26 13 13 13 C13 13.99 13 14.98 13 16 C10.03 16 7.06 16 4 16 C4 15.34 4 14.68 4 14 C3.01 14 2.02 14 1 14 C-0.44209192 9.49346274 -1.34223148 5.79124078 -1 1 C-0.67 0.67 -0.34 0.34 0 0 Z " fill="#43292C" transform="translate(411,310)"/>
<path d="M0 0 C0.66 0.33 1.32 0.66 2 1 C2 3.62113708 1.68707555 5.50935112 1 8 C1.80824219 8.13277344 2.61648438 8.26554687 3.44921875 8.40234375 C5.05216797 8.66724609 5.05216797 8.66724609 6.6875 8.9375 C7.74324219 9.11152344 8.79898437 9.28554688 9.88671875 9.46484375 C12.60249604 9.93167121 15.30124235 10.44422616 18 11 C18 11.33 18 11.66 18 12 C13.05 11.67 8.1 11.34 3 11 C3 10.34 3 9.68 3 9 C1.68 9 0.36 9 -1 9 C-1.33 7.02 -1.66 5.04 -2 3 C-1.34 3 -0.68 3 0 3 C0 2.01 0 1.02 0 0 Z " fill="#5A4140" transform="translate(338,455)"/>
<path d="M0 0 C0 0.66 0 1.32 0 2 C-3.32505505 4.21670337 -6.14513223 5.00305144 -10 6 C-11.3303125 6.37125 -11.3303125 6.37125 -12.6875 6.75 C-15.43888012 7.0474465 -16.69020717 6.454314 -19 5 C-18.05125 4.7525 -17.1025 4.505 -16.125 4.25 C-11.97750988 3.08802424 -8.08410352 1.41776615 -4.13671875 -0.29296875 C-2 -1 -2 -1 0 0 Z " fill="#664D48" transform="translate(431,276)"/>
<path d="M0 0 C5.72173913 3.16521739 5.72173913 3.16521739 7 7 C7 10 7 10 5 14 C5 11.03 5 8.06 5 5 C-1.25586848 4.36057849 -1.25586848 4.36057849 -6.5625 7 C-7.036875 7.66 -7.51125 8.32 -8 9 C-8 6.69 -8 4.38 -8 2 C-5.36 2 -2.72 2 0 2 C0 1.34 0 0.68 0 0 Z " fill="#684843" transform="translate(368,382)"/>
<path d="M0 0 C-0.639375 0.28875 -1.27875 0.5775 -1.9375 0.875 C-4.15206079 1.82823451 -4.15206079 1.82823451 -5 4 C-9.95 4 -14.9 4 -20 4 C-19.67 3.34 -19.34 2.68 -19 2 C-16.67284 1.62599214 -14.33882138 1.29235267 -12 1 C-11.67 0.67 -11.34 0.34 -11 0 C-3.7826685 -1.36176066 -3.7826685 -1.36176066 0 0 Z " fill="#614F54" transform="translate(412,598)"/>
<path d="M0 0 C2.31 0.33 4.62 0.66 7 1 C7 1.33 7 1.66 7 2 C5.02 2.33 3.04 2.66 1 3 C0.80664062 3.62648438 0.61328125 4.25296875 0.4140625 4.8984375 C0.15367187 5.71570313 -0.10671875 6.53296875 -0.375 7.375 C-0.63023437 8.18710937 -0.88546875 8.99921875 -1.1484375 9.8359375 C-2 12 -2 12 -4 14 C-7.125 14.125 -7.125 14.125 -10 14 C-10.33 13.34 -10.66 12.68 -11 12 C-8.69 12 -6.38 12 -4 12 C-4 10.02 -4 8.04 -4 6 C-3.34 5.67 -2.68 5.34 -2 5 C-1.27840576 3.35636866 -0.60648579 1.68949614 0 0 Z " fill="#5A4243" transform="translate(428,314)"/>
<path d="M0 0 C2.97 0.495 2.97 0.495 6 1 C4.68 1.33 3.36 1.66 2 2 C2.02320313 3.26457031 2.04640625 4.52914062 2.0703125 5.83203125 C2.08907126 7.4921816 2.10727135 9.15233833 2.125 10.8125 C2.15013672 12.06256836 2.15013672 12.06256836 2.17578125 13.33789062 C2.18222656 14.14033203 2.18867187 14.94277344 2.1953125 15.76953125 C2.20578613 16.50792236 2.21625977 17.24631348 2.22705078 18.00708008 C2 20 2 20 0 23 C0 15.41 0 7.82 0 0 Z " fill="#525254" transform="translate(48,48)"/>
<path d="M0 0 C1.41750563 0.11509661 2.83401169 0.24253658 4.25 0.375 C5.03890625 0.44460938 5.8278125 0.51421875 6.640625 0.5859375 C9.14478952 1.02541008 10.86957156 1.61427885 13 3 C13.33 3.99 13.66 4.98 14 6 C12.22844346 5.88570603 10.45773771 5.75816963 8.6875 5.625 C7.70136719 5.55539062 6.71523438 5.48578125 5.69921875 5.4140625 C3 5 3 5 0 3 C0 2.01 0 1.02 0 0 Z " fill="#674846" transform="translate(390,453)"/>
<path d="M0 0 C2.00720923 0.28674418 4.0085944 0.61866701 6 1 C2.99988164 4.00011836 -0.16707101 4.90431692 -4.39453125 5.125 C-6.60000767 5.125 -8.79641059 5.08814358 -11 5 C-11.33 3.68 -11.66 2.36 -12 1 C-11.21753906 1.01160156 -10.43507813 1.02320313 -9.62890625 1.03515625 C-8.61699219 1.04417969 -7.60507812 1.05320312 -6.5625 1.0625 C-5.04849609 1.07990234 -5.04849609 1.07990234 -3.50390625 1.09765625 C-1.05978933 1.28612676 -1.05978933 1.28612676 0 0 Z " fill="#544240" transform="translate(415,291)"/>
<path d="M0 0 C-0.33 2.31 -0.66 4.62 -1 7 C-0.01 7 0.98 7 2 7 C3.80230168 10.82989106 4.19622241 13.78121808 4 18 C3.01 17.34 2.02 16.68 1 16 C0.63239269 13.67182036 0.29758419 11.3381615 0 9 C-0.66 8.67 -1.32 8.34 -2 8 C-2 7.34 -2 6.68 -2 6 C-2.66 6 -3.32 6 -4 6 C-4.33 5.01 -4.66 4.02 -5 3 C-2.25 0 -2.25 0 0 0 Z " fill="#443234" transform="translate(312,315)"/>
<path d="M0 0 C0.66 0.33 1.32 0.66 2 1 C1.4296875 2.83984375 1.4296875 2.83984375 0 5 C-3.1171875 6.37890625 -3.1171875 6.37890625 -6.875 7.5625 C-11.14034597 8.92046505 -14.59343572 10.04707368 -18 13 C-18.66 12.67 -19.32 12.34 -20 12 C-14.14038608 7.50923032 -9.34356798 4.223928 -2 3 C-2 2.34 -2 1.68 -2 1 C-1.34 0.67 -0.68 0.34 0 0 Z " fill="#665252" transform="translate(458,579)"/>
<path d="M0 0 C5.28 0.33 10.56 0.66 16 1 C13 4 13 4 10.375 4.125 C9.59125 4.08375 8.8075 4.0425 8 4 C7.67 4.33 7.34 4.66 7 5 C5.33382885 5.04063832 3.66611905 5.042721 2 5 C1.34 3.35 0.68 1.7 0 0 Z " fill="#664945" transform="translate(360,395)"/>
<path d="M0 0 C2 1 2 1 2.66796875 2.890625 C4.05064919 9.16986548 4.19354397 13.25162085 1 19 C-0.26582219 15.13276369 -0.1118765 11.26848738 -0.0625 7.25 C-0.05798828 6.55261719 -0.05347656 5.85523438 -0.04882812 5.13671875 C-0.0371002 3.42444197 -0.01916653 1.71220967 0 0 Z " fill="#312829" transform="translate(276,349)"/>
<path d="M0 0 C1.65919896 0.36871088 3.3247643 0.71281674 5 1 C2.65828261 3.34171739 1.76939546 3.391923 -1.4375 3.75 C-2.61119141 3.89695312 -2.61119141 3.89695312 -3.80859375 4.046875 C-6 4 -6 4 -9 2 C-9 1.34 -9 0.68 -9 0 C-9.66 -0.33 -10.32 -0.66 -11 -1 C-6.50211151 -2.04602058 -4.16468706 -1.92216326 0 0 Z " fill="#4D3938" transform="translate(422,305)"/>
<path d="M0 0 C1.32 0.33 2.64 0.66 4 1 C4.1953125 7.0546875 4.1953125 7.0546875 4 9 C2 11 2 11 -0.6015625 11.1953125 C-1.59929687 11.17210937 -2.59703125 11.14890625 -3.625 11.125 C-5.12933594 11.09792969 -5.12933594 11.09792969 -6.6640625 11.0703125 C-7.43492187 11.04710937 -8.20578125 11.02390625 -9 11 C-9 10.34 -9 9.68 -9 9 C-3.555 8.505 -3.555 8.505 2 8 C2.33 6.35 2.66 4.7 3 3 C2.01 2.67 1.02 2.34 0 2 C0 1.34 0 0.68 0 0 Z " fill="#7E6561" transform="translate(378,453)"/>
<path d="M0 0 C0.33 0 0.66 0 1 0 C1.39700044 12.19673577 1.39700044 12.19673577 -1 18 C-1.99 18.33 -2.98 18.66 -4 19 C-4 17.35 -4 15.7 -4 14 C-3.34 14 -2.68 14 -2 14 C-1.93941406 13.32453125 -1.87882812 12.6490625 -1.81640625 11.953125 C-1.73261719 11.06109375 -1.64882813 10.1690625 -1.5625 9.25 C-1.48128906 8.36828125 -1.40007812 7.4865625 -1.31640625 6.578125 C-1.03761535 4.30649548 -0.61209423 2.20148177 0 0 Z " fill="#352628" transform="translate(492,306)"/>
<path d="M0 0 C0.66 0.33 1.32 0.66 2 1 C1.44449305 4.59905908 0.25112752 5.99909799 -2.5625 8.25 C-3.20316406 8.77078125 -3.84382813 9.2915625 -4.50390625 9.828125 C-4.99761719 10.21484375 -5.49132813 10.6015625 -6 11 C-6.66 10.67 -7.32 10.34 -8 10 C-7.375 7.125 -7.375 7.125 -6 4 C-2.875 2.625 -2.875 2.625 0 2 C0 1.34 0 0.68 0 0 Z " fill="#636365" transform="translate(64,72)"/>
<path d="M0 0 C1.65 0.33 3.3 0.66 5 1 C5 2.98 5 4.96 5 7 C3.35 7 1.7 7 0 7 C-1.125 2.25 -1.125 2.25 0 0 Z " fill="#7C6A69" transform="translate(320,318)"/>
<path d="M0 0 C0 0.66 0 1.32 0 2 C-7.59 1.34 -15.18 0.68 -23 0 C-23 -0.33 -23 -0.66 -23 -1 C-15.99391985 -2.23636709 -6.51672002 -3.25836001 0 0 Z " fill="#343235" transform="translate(139,12)"/>
<path d="M0 0 C0.99 0 1.98 0 3 0 C3 0.66 3 1.32 3 2 C6.3 2.33 9.6 2.66 13 3 C13 3.99 13 4.98 13 6 C12.34 5.855625 11.68 5.71125 11 5.5625 C7.34400449 4.87700084 3.69377805 4.43824485 0 4 C0 2.68 0 1.36 0 0 Z " fill="#442E31" transform="translate(305,286)"/>
<path d="M0 0 C1.08949453 3.26848358 1.23747441 3.90631397 0 7 C-1.53688247 9.19477601 -3.1594116 11.0247344 -5 13 C-5.66 13 -6.32 13 -7 13 C-6.6875 11.125 -6.6875 11.125 -6 9 C-5.01 8.34 -4.02 7.68 -3 7 C-2.27306096 5.02111039 -1.60183749 3.02045442 -1 1 C-0.67 0.67 -0.34 0.34 0 0 Z " fill="#584345" transform="translate(479,561)"/>
<path d="M0 0 C0.66 0.33 1.32 0.66 2 1 C1.55170486 2.98146451 1.09107502 4.96014211 0.625 6.9375 C0.36976563 8.03964844 0.11453125 9.14179688 -0.1484375 10.27734375 C-0.42945313 11.17582031 -0.71046875 12.07429688 -1 13 C-1.99 13.495 -1.99 13.495 -3 14 C-3.08082094 12.04233719 -3.13910778 10.08373272 -3.1875 8.125 C-3.22230469 7.03445313 -3.25710938 5.94390625 -3.29296875 4.8203125 C-3.19628906 3.88960938 -3.09960938 2.95890625 -3 2 C-2.01 1.34 -1.02 0.68 0 0 Z " fill="#51322D" transform="translate(339,352)"/>
<path d="M0 0 C2.31 0 4.62 0 7 0 C7 0.66 7 1.32 7 2 C8.175625 2.185625 8.175625 2.185625 9.375 2.375 C12 3 12 3 14 5 C10.7 4.67 7.4 4.34 4 4 C4 3.34 4 2.68 4 2 C2.68 1.67 1.36 1.34 0 1 C0 0.67 0 0.34 0 0 Z " fill="#312627" transform="translate(354,598)"/>
<path d="M0 0 C0.33 0 0.66 0 1 0 C1.13277344 0.69867188 1.26554687 1.39734375 1.40234375 2.1171875 C1.57894531 3.02726562 1.75554687 3.93734375 1.9375 4.875 C2.11152344 5.77992188 2.28554688 6.68484375 2.46484375 7.6171875 C2.89963701 9.99956317 2.89963701 9.99956317 4 12 C3.71887936 14.00800456 3.38932033 16.01014051 3 18 C2.34 17.67 1.68 17.34 1 17 C-0.45866945 11.4570561 -0.09106925 5.68676891 0 0 Z " fill="#342824" transform="translate(293,478)"/>
<path d="M0 0 C0 0.66 0 1.32 0 2 C-0.99 2.33 -1.98 2.66 -3 3 C-3.33 3.66 -3.66 4.32 -4 5 C-6.31 4.67 -8.62 4.34 -11 4 C-8.74499851 -0.51000297 -4.55950767 -0.20725035 0 0 Z " fill="#2C282D" transform="translate(540,366)"/>
<path d="M0 0 C0.33 1.32 0.66 2.64 1 4 C-1.69557909 6.75942175 -2.94740016 6.99899659 -6.890625 7.07421875 C-8.34512042 6.96182592 -9.79838312 6.83240522 -11.25 6.6875 C-11.99507813 6.62626953 -12.74015625 6.56503906 -13.5078125 6.50195312 C-15.33982155 6.3492857 -17.17014316 6.17660246 -19 6 C-19 5.67 -19 5.34 -19 5 C-17.87980469 4.97421875 -16.75960937 4.9484375 -15.60546875 4.921875 C-14.13277354 4.86559365 -12.6601188 4.80824632 -11.1875 4.75 C-10.44951172 4.73582031 -9.71152344 4.72164062 -8.95117188 4.70703125 C-4.47562582 4.53490953 -4.47562582 4.53490953 -0.98828125 1.953125 C-0.66214844 1.30859375 -0.33601563 0.6640625 0 0 Z " fill="#29282A" transform="translate(139,158)"/>
<path d="M0 0 C-0.66 0 -1.32 0 -2 0 C-2 0.66 -2 1.32 -2 2 C-3.76949612 2.50471197 -5.54065223 3.00360685 -7.3125 3.5 C-8.79169922 3.91765625 -8.79169922 3.91765625 -10.30078125 4.34375 C-13 5 -13 5 -16 5 C-11.53321948 1.09156705 -5.86504904 -1.93756084 0 0 Z " fill="#544343" transform="translate(458,585)"/>
<path d="M0 0 C-0.99 0.33 -1.98 0.66 -3 1 C-3.391875 1.474375 -3.78375 1.94875 -4.1875 2.4375 C-7.06984967 4.9222842 -10.31012658 5.21363353 -14 6 C-14 5.34 -14 4.68 -14 4 C-12.42466914 3.13116294 -10.83935491 2.28040932 -9.25 1.4375 C-8.36828125 0.96183594 -7.4865625 0.48617187 -6.578125 -0.00390625 C-3.79298812 -1.07998186 -2.73019786 -1.06528748 0 0 Z " fill="#382424" transform="translate(470,581)"/>
<path d="M0 0 C1.98 0 3.96 0 6 0 C6 0.33 6 0.66 6 1 C4.02 1 2.04 1 0 1 C0 0.67 0 0.34 0 0 Z M-14 1 C-9.38 1 -4.76 1 0 1 C0 1.33 0 1.66 0 2 C-0.67546875 2.04898437 -1.3509375 2.09796875 -2.046875 2.1484375 C-2.93890625 2.22320312 -3.8309375 2.29796875 -4.75 2.375 C-5.63171875 2.44460938 -6.5134375 2.51421875 -7.421875 2.5859375 C-9.99066382 2.99850055 -11.75841015 3.71160957 -14 5 C-14 3.68 -14 2.36 -14 1 Z " fill="#69504C" transform="translate(374,464)"/>
<path d="M0 0 C5.28 0 10.56 0 16 0 C16 0.66 16 1.32 16 2 C8.08 2.495 8.08 2.495 0 3 C0 2.01 0 1.02 0 0 Z " fill="#634E49" transform="translate(352,453)"/>
<path d="M0 0 C0.33 0 0.66 0 1 0 C1.05423638 1.91635217 1.09289963 3.83314925 1.125 5.75 C1.14820313 6.81734375 1.17140625 7.8846875 1.1953125 8.984375 C1.00487687 11.92470106 0.52670104 13.52361878 -1 16 C-1.33 16 -1.66 16 -2 16 C-2.20674944 10.21101581 -1.59162079 5.57067277 0 0 Z " fill="#231513" transform="translate(482,408)"/>
<path d="M0 0 C0 0.66 0 1.32 0 2 C-1.76896102 2.36340286 -3.54026626 2.71540883 -5.3125 3.0625 C-6.29863281 3.25972656 -7.28476562 3.45695312 -8.30078125 3.66015625 C-11 4 -11 4 -14 3 C-11.14426549 1.09617699 -10.21887862 0.7042035 -7 0.375 C-6.319375 0.30023438 -5.63875 0.22546875 -4.9375 0.1484375 C-3.29573423 0.02265706 -1.64657692 0 0 0 Z " fill="#634C47" transform="translate(403,283)"/>
<path d="M0 0 C0.99 0 1.98 0 3 0 C3.33 0.99 3.66 1.98 4 3 C6.01508358 3.73323796 6.01508358 3.73323796 8 4 C8 5.32 8 6.64 8 8 C5.525 7.01 5.525 7.01 3 6 C3 5.34 3 4.68 3 4 C2.01 4 1.02 4 0 4 C0 2.68 0 1.36 0 0 Z " fill="#5B3F3B" transform="translate(444,280)"/>
<path d="M0 0 C0.66 0 1.32 0 2 0 C1.71125 0.515625 1.4225 1.03125 1.125 1.5625 C-0.28780027 4.62356725 -1.1248517 7.74944918 -2 11 C-2.99 11 -3.98 11 -5 11 C-4.54917531 9.53932801 -4.08906463 8.08151968 -3.625 6.625 C-3.36976563 5.81289063 -3.11453125 5.00078125 -2.8515625 4.1640625 C-2 2 -2 2 0 0 Z " fill="#5D3F3D" transform="translate(387,454)"/>
<path d="M0 0 C0.66 0.33 1.32 0.66 2 1 C1.38722388 3.96175123 0.74627478 5.38058783 -1 8 C-1.63292383 10.11280345 -1.63292383 10.11280345 -2 12 C-2.66 11.67 -3.32 11.34 -4 11 C-3.38461538 3.49230769 -3.38461538 3.49230769 -1.4375 1 C-0.963125 0.67 -0.48875 0.34 0 0 Z " fill="#593B35" transform="translate(345,340)"/>
<path d="M0 0 C0.66 0.33 1.32 0.66 2 1 C2.28571429 9.57142857 2.28571429 9.57142857 0 13 C-0.66 13 -1.32 13 -2 13 C-1.85851011 11.3954444 -1.71164314 9.79136233 -1.5625 8.1875 C-1.48128906 7.29417969 -1.40007813 6.40085937 -1.31640625 5.48046875 C-1 3 -1 3 0 0 Z " fill="#3F4044" transform="translate(542,373)"/>
<path d="M0 0 C-3.38583802 3.13107836 -5.71109462 3.33550778 -10.25 3.1875 C-11.86648438 3.14689453 -11.86648438 3.14689453 -13.515625 3.10546875 C-14.74539063 3.05326172 -14.74539063 3.05326172 -16 3 C-16 2.67 -16 2.34 -16 2 C-15.30132812 1.86722656 -14.60265625 1.73445312 -13.8828125 1.59765625 C-12.51769531 1.33275391 -12.51769531 1.33275391 -11.125 1.0625 C-10.22007812 0.88847656 -9.31515625 0.71445312 -8.3828125 0.53515625 C-2.56875 -0.770625 -2.56875 -0.770625 0 0 Z " fill="#36272C" transform="translate(416,603)"/>
<path d="M0 0 C1.13643966 3.40931897 0.86747764 4.00335456 -0.4375 7.1875 C-0.72496094 7.90292969 -1.01242187 8.61835938 -1.30859375 9.35546875 C-1.53675781 9.89816406 -1.76492188 10.44085938 -2 11 C-4 8 -4 8 -3.8125 5.5 C-2.95559826 2.86337925 -2.11007147 1.74310252 0 0 Z " fill="#413131" transform="translate(484,367)"/>
<path d="M0 0 C0.79921875 0.00902344 1.5984375 0.01804687 2.421875 0.02734375 C3.02515625 0.03894531 3.6284375 0.05054688 4.25 0.0625 C4.25 1.0525 4.25 2.0425 4.25 3.0625 C-0.04 3.0625 -4.33 3.0625 -8.75 3.0625 C-8.75 2.4025 -8.75 1.7425 -8.75 1.0625 C-5.75519083 0.1901588 -3.11424089 -0.04579766 0 0 Z " fill="#56433D" transform="translate(411.75,281.9375)"/>
<path d="M0 0 C0 0.66 0 1.32 0 2 C1.32 1.67 2.64 1.34 4 1 C4 1.66 4 2.32 4 3 C-3.42857143 4.28571429 -3.42857143 4.28571429 -7 3 C-6.67 2.34 -6.34 1.68 -6 1 C-3.911361 0.32624548 -2.19636905 0 0 0 Z " fill="#433436" transform="translate(304,306)"/>
<path d="M0 0 C1.18771723 3.42943519 0.80226223 5.37784675 -0.4375 8.75 C-0.86869141 9.94882812 -0.86869141 9.94882812 -1.30859375 11.171875 C-1.65083984 12.07679688 -1.65083984 12.07679688 -2 13 C-3.29550413 10.40899174 -2.96400816 8.80575631 -2.6875 5.9375 C-2.60886719 5.03902344 -2.53023438 4.14054687 -2.44921875 3.21484375 C-2.30097656 2.48394531 -2.15273438 1.75304687 -2 1 C-1.34 0.67 -0.68 0.34 0 0 Z " fill="#4B2B29" transform="translate(347,312)"/>
<path d="M0 0 C0 1.32 0 2.64 0 4 C-3.35595828 3.40072174 -5.37801226 2.15377564 -8 0 C-4.71023192 -1.09658936 -3.28696233 -0.79953138 0 0 Z " fill="#634943" transform="translate(440,276)"/>
<path d="M0 0 C2.97 0 5.94 0 9 0 C9 0.99 9 1.98 9 3 C6.03 3 3.06 3 0 3 C0 2.01 0 1.02 0 0 Z " fill="#4D3331" transform="translate(415,323)"/>
<path d="M0 0 C2.625 0.375 2.625 0.375 5 1 C4.01 2.32 3.02 3.64 2 5 C2.66 5.33 3.32 5.66 4 6 C2.68 6 1.36 6 0 6 C-0.66 4.68 -1.32 3.36 -2 2 C-1.34 1.34 -0.68 0.68 0 0 Z " fill="#46322F" transform="translate(418,312)"/>
<path d="M0 0 C0.66 0 1.32 0 2 0 C2 3.3 2 6.6 2 10 C0.02 10.99 0.02 10.99 -2 12 C-1.34 8.04 -0.68 4.08 0 0 Z " fill="#36292C" transform="translate(494,293)"/>
<path d="M0 0 C-3.2837938 2.48772258 -4.61198583 3.03180444 -8.8125 2.6875 C-9.864375 2.460625 -10.91625 2.23375 -12 2 C-11.67 1.34 -11.34 0.68 -11 0 C-7.08234111 -0.81309902 -3.82092412 -1.37553268 0 0 Z " fill="#66555B" transform="translate(412,598)"/>
<path d="M0 0 C0 0.66 0 1.32 0 2 C-6.625 5 -6.625 5 -10 5 C-10 4.34 -10 3.68 -10 3 C-9.34 3 -8.68 3 -8 3 C-8 2.34 -8 1.68 -8 1 C-5.23735711 0.40267181 -2.83967231 0 0 0 Z " fill="#38292A" transform="translate(456,587)"/>
<path d="M0 0 C0.66 0.33 1.32 0.66 2 1 C1.34 2.98 0.68 4.96 0 7 C-0.66 6.01 -1.32 5.02 -2 4 C-1.34 2.68 -0.68 1.36 0 0 Z M-2 7 C-1.67 7 -1.34 7 -1 7 C-1 9.31 -1 11.62 -1 14 C-1.33 14 -1.66 14 -2 14 C-2 11.69 -2 9.38 -2 7 Z " fill="#6A4B45" transform="translate(343,352)"/>
<path d="M0 0 C0.66 0 1.32 0 2 0 C0.6302836 3.99500618 -1.25722422 6.80009492 -4 10 C-4.66 9.67 -5.32 9.34 -6 9 C-4.625 6.5 -4.625 6.5 -3 4 C-2.34 4 -1.68 4 -1 4 C-0.67 2.68 -0.34 1.36 0 0 Z " fill="#6F5759" transform="translate(430,318)"/>
<path d="M0 0 C0.33 0.99 0.66 1.98 1 3 C-1.57784846 5.64752004 -3.91648098 7.94432065 -7 10 C-7 9.01 -7 8.02 -7 7 C-6.34 7 -5.68 7 -5 7 C-4.67 6.01 -4.34 5.02 -4 4 C-2.70644173 2.62804426 -1.37701298 1.28817344 0 0 Z " fill="#472E2F" transform="translate(333,321)"/>
<path d="M0 0 C0.66 0 1.32 0 2 0 C2.66 3.63 3.32 7.26 4 11 C1.29727467 8.12835434 0.05208163 6.69008159 -0.25 2.6875 C-0.1675 1.800625 -0.085 0.91375 0 0 Z " fill="#53383B" transform="translate(408,313)"/>
<path d="M0 0 C-3.63423209 2.32590854 -6.77088331 2.16265833 -11 2 C-11 1.34 -11 0.68 -11 0 C-6.98195309 -0.84098656 -3.98196457 -1.05404945 0 0 Z " fill="#574540" transform="translate(433,292)"/>
<path d="M0 0 C0.99 0.495 0.99 0.495 2 1 C2 1.99 2 2.98 2 4 C2.99 4 3.98 4 5 4 C5.33 4.99 5.66 5.98 6 7 C4.35 7 2.7 7 1 7 C0.67 4.69 0.34 2.38 0 0 Z " fill="#785D5E" transform="translate(326,280)"/>
<path d="M0 0 C0.721875 0.103125 1.44375 0.20625 2.1875 0.3125 C1.1875 2.3125 1.1875 2.3125 -0.87890625 3.1640625 C-2.11447266 3.54691406 -2.11447266 3.54691406 -3.375 3.9375 C-4.61443359 4.32808594 -4.61443359 4.32808594 -5.87890625 4.7265625 C-6.51699219 4.91992188 -7.15507813 5.11328125 -7.8125 5.3125 C-3.50480769 0.38942308 -3.50480769 0.38942308 0 0 Z " fill="#3F3F41" transform="translate(65.8125,77.6875)"/>
<path d="M0 0 C0.33 0 0.66 0 1 0 C1.39180108 1.57925975 1.76280736 3.16368794 2.125 4.75 C2.33382812 5.63171875 2.54265625 6.5134375 2.7578125 7.421875 C3.03088304 10.32875493 2.53508028 11.56661348 1 14 C-0.20568053 9.32798795 -0.09382426 4.78503708 0 0 Z " fill="#2D2D2F" transform="translate(100,66)"/>
<path d="M0 0 C2.38564077 0.57584432 4.66682784 1.22227595 7 2 C7.33 2.99 7.66 3.98 8 5 C6.68 5 5.36 5 4 5 C4 4.34 4 3.68 4 3 C2.68 2.67 1.36 2.34 0 2 C0 1.34 0 0.68 0 0 Z " fill="#765755" transform="translate(396,454)"/>
<path d="M0 0 C2.0625 0.4375 2.0625 0.4375 4 1 C4 2.32 4 3.64 4 5 C4.99 5.33 5.98 5.66 7 6 C5.35 5.67 3.7 5.34 2 5 C1.67 4.01 1.34 3.02 1 2 C0.34 1.67 -0.32 1.34 -1 1 C-0.67 0.67 -0.34 0.34 0 0 Z " fill="#3A2B2E" transform="translate(367,600)"/>
<path d="M0 0 C0.7425 0.0825 1.485 0.165 2.25 0.25 C0.27579865 2.77259061 -0.71745642 3.2429808 -3.9375 3.9375 C-5.3296875 4.0921875 -5.3296875 4.0921875 -6.75 4.25 C-3.42692308 0.31153846 -3.42692308 0.31153846 0 0 Z " fill="#6F5954" transform="translate(403.75,279.75)"/>
<path d="M0 0 C0.66 0.33 1.32 0.66 2 1 C1.43628586 4.26954202 0.50037734 5.82575883 -2 8 C-2.66 7.67 -3.32 7.34 -4 7 C-2.68 4.69 -1.36 2.38 0 0 Z " fill="#545456" transform="translate(64,72)"/>
</svg>
